{"title":"Smurfs 2 (2013) R5 DVDRip Xvid - RUST [P2PDL]","uid":9164132,"size":2207776768,"categoryP":"video","categoryS":"movies","magnet":"?xt=urn:btih:b59253d77f7c8840bdeb5fb92cd923bf44331e09&amp;dn=Smurfs+2+%282013%29+R5+DVDRip+Xvid+-+RUST+%5BP2PDL%5D&amp;tr=udp%3A%2F%2Ftracker.openbittorrent.com%3A80&amp;tr=udp%3A%2F%2Fopen.demonii.com%3A1337&amp;tr=udp%3A%2F%2Ftracker.coppersurfer.tk%3A6969&amp;tr=udp%3A%2F%2Fexodus.desync.com%3A6969","seeders":6,"leechers":0,"uploader":"TeX","files":1,"time":1383936231,"description":" &lt;a href=&quot;https://yuq.me/movies/20/170/2017020.jpg&quot; rel=&quot;nofollow&quot; target=&quot;_NEW&quot;&gt;https://yuq.me/movies/20/170/2017020.jpg&lt;/a&gt;\n &lt;a href=&quot;\nhttp://www.imdb.com/title/tt2017020/?ref_=nv_sr_1&quot; rel=&quot;nofollow&quot; target=&quot;_NEW&quot;&gt;\nhttp://www.imdb.com/title/tt2017020/?ref_=nv_sr_1&lt;/a&gt;\n\nGeneral\nComplete name                            : /home/vyto/downloads/Smurfs 2 (2013) R5 DVDRip Xvid - RUST.avi\nFormat                                   : AVI\nFormat/Info                              : Audio Video Interleave\nFile size                                : 2.06 GiB\nDuration                                 : 1h 40mn\nOverall bit rate                         : 2 932 Kbps\nMovie name                               : Smurfiki.2013.D.DVDRip.2100MB.INTERCINEMA\nDirector                                 : INTERCINEMA\nGenre                                    : Fantasy/Comedy/Family\nWriting application                      : VirtualDubMod 1.5.10.2 (build 2540/release)\nOriginal source form/Name                : Movie\nCopyright                                : http://intercinema.net/\n\nVideo\nID                                       : 0\nFormat                                   : MPEG-4 Visual\nFormat profile                           : Advanced Simple@L5\nFormat settings, BVOP                    : 1\nFormat settings, QPel                    : No\nFormat settings, GMC                     : No warppoints\nFormat settings, Matrix                  : Default (MPEG)\nCodec ID                                 : XVID\nCodec ID/Hint                            : XviD\nDuration                                 : 1h 40mn\nBit rate                                 : 2 022 Kbps\nWidth                                    : 720 pixels\nHeight                                   : 384 pixels\nDisplay aspect ratio                     : 1.85:1\nFrame rate                               : 25.000 fps\nColor space                              : YUV\nChroma subsampling                       : 4:2:0\nBit depth                                : 8 bits\nScan type                                : Progressive\nCompression mode                         : Lossy\nBits/(Pixel*Frame)                       : 0.292\nStream size                              : 1.42 GiB (69%)\nWriting library                          : XviD 73\n\nAudio #1\nID                                       : 1\nFormat                                   : AC-3\nFormat/Info                              : Audio Coding 3\nMode extension                           : CM (complete main)\nFormat settings, Endianness              : Big\nCodec ID                                 : 2000\nDuration                                 : 1h 40mn\nBit rate mode                            : Constant\nBit rate                                 : 448 Kbps\nChannel(s)                               : 6 channels\nChannel positions                        : Front: L C R, Side: L R, LFE\nSampling rate                            : 48.0 KHz\nBit depth                                : 16 bits\nCompression mode                         : Lossy\nStream size                              : 322 MiB (15%)\nAlignment                                : Split accross interleaves\nInterleave, duration                     : 40 ms (1.00 video frame)\nInterleave, preload duration             : 500 ms\n\nAudio #2\nID                                       : 2\nFormat                                   : AC-3\nFormat/Info                              : Audio Coding 3\nMode extension                           : CM (complete main)\nFormat settings, Endianness              : Big\nCodec ID                                 : 2000\nDuration                                 : 1h 40mn\nBit rate mode                            : Constant\nBit rate                                 : 448 Kbps\nChannel(s)                               : 6 channels\nChannel positions                        : Front: L C R, Side: L R, LFE\nSampling rate                            : 48.0 KHz\nBit depth                                : 16 bits\nCompression mode                         : Lossy\nStream size                              : 322 MiB (15%)\nAlignment                                : Split accross interleaves\nInterleave, duration                     : 40 ms (1.00 video frame)\nInterleave, preload duration             : 500 ms\n\n\n\n","torrent":{"xt":"urn:btih:b59253d77f7c8840bdeb5fb92cd923bf44331e09","amp;dn":"Smurfs+2+%282013%29+R5+DVDRip+Xvid+-+RUST+%5BP2PDL%5D","amp;tr":["udp%3A%2F%2Ftracker.openbittorrent.com%3A80","udp%3A%2F%2Fopen.demonii.com%3A1337","udp%3A%2F%2Ftracker.coppersurfer.tk%3A6969","udp%3A%2F%2Fexodus.desync.com%3A6969"],"infoHash":"b59253d77f7c8840bdeb5fb92cd923bf44331e09","infoHashBuffer":{"type":"Buffer","data":[181,146,83,215,127,124,136,64,189,235,95,185,44,217,35,191,68,51,30,9]},"announce":[],"urlList":[]}}